<svg width="86" height="24" viewBox="0 0 86 24" fill="none" xmlns="http://www.w3.org/2000/svg">
<path d="M3.694 20.306C1.784 18.394 3.952 13.126 8.539 8.539C13.126 3.952 18.394 1.783 20.306 3.694C22.216 5.606 20.048 10.874 15.461 15.461C10.874 20.048 5.606 22.217 3.694 20.306ZM5.08 18.92C5.895 19.736 10.182 17.97 14.077 14.075C17.972 10.18 19.737 5.893 18.922 5.078C18.107 4.262 13.82 6.028 9.925 9.923C6.03 13.818 4.265 18.105 5.08 18.92V18.92ZM8.54 15.46C3.952 10.874 1.783 5.606 3.694 3.694C5.606 1.784 10.874 3.952 15.461 8.539C20.048 13.126 22.217 18.394 20.306 20.306C18.394 22.216 13.126 20.048 8.539 15.461L8.54 15.46ZM9.925 14.075C13.82 17.97 18.107 19.735 18.922 18.92C19.738 18.105 17.972 13.818 14.077 9.923C10.182 6.028 5.895 4.263 5.08 5.078C4.264 5.893 6.03 10.18 9.925 14.075V14.075ZM12 14C11.4696 14 10.9609 13.7893 10.5858 13.4142C10.2107 13.0391 10 12.5304 10 12C10 11.4696 10.2107 10.9609 10.5858 10.5858C10.9609 10.2107 11.4696 10 12 10C12.5304 10 13.0391 10.2107 13.4142 10.5858C13.7893 10.9609 14 11.4696 14 12C14 12.5304 13.7893 13.0391 13.4142 13.4142C13.0391 13.7893 12.5304 14 12 14Z" fill="white"/>
<path d="M34.372 16.108C33.828 16.108 33.34 16.012 32.908 15.82C32.476 15.62 32.132 15.352 31.876 15.016C31.628 14.68 31.492 14.308 31.468 13.9H33.16C33.192 14.156 33.316 14.368 33.532 14.536C33.756 14.704 34.032 14.788 34.36 14.788C34.68 14.788 34.928 14.724 35.104 14.596C35.288 14.468 35.38 14.304 35.38 14.104C35.38 13.888 35.268 13.728 35.044 13.624C34.828 13.512 34.48 13.392 34 13.264C33.504 13.144 33.096 13.02 32.776 12.892C32.464 12.764 32.192 12.568 31.96 12.304C31.736 12.04 31.624 11.684 31.624 11.236C31.624 10.868 31.728 10.532 31.936 10.228C32.152 9.924 32.456 9.684 32.848 9.508C33.248 9.332 33.716 9.244 34.252 9.244C35.044 9.244 35.676 9.444 36.148 9.844C36.62 10.236 36.88 10.768 36.928 11.44H35.32C35.296 11.176 35.184 10.968 34.984 10.816C34.792 10.656 34.532 10.576 34.204 10.576C33.9 10.576 33.664 10.632 33.496 10.744C33.336 10.856 33.256 11.012 33.256 11.212C33.256 11.436 33.368 11.608 33.592 11.728C33.816 11.84 34.164 11.956 34.636 12.076C35.116 12.196 35.512 12.32 35.824 12.448C36.136 12.576 36.404 12.776 36.628 13.048C36.86 13.312 36.98 13.664 36.988 14.104C36.988 14.488 36.88 14.832 36.664 15.136C36.456 15.44 36.152 15.68 35.752 15.856C35.36 16.024 34.9 16.108 34.372 16.108ZM41.3191 16.108C40.6791 16.108 40.1031 15.968 39.5911 15.688C39.0791 15.4 38.6751 14.996 38.3791 14.476C38.0911 13.956 37.9471 13.356 37.9471 12.676C37.9471 11.996 38.0951 11.396 38.3911 10.876C38.6951 10.356 39.1071 9.956 39.6271 9.676C40.1471 9.388 40.7271 9.244 41.3671 9.244C42.0071 9.244 42.5871 9.388 43.1071 9.676C43.6271 9.956 44.0351 10.356 44.3311 10.876C44.6351 11.396 44.7871 11.996 44.7871 12.676C44.7871 13.356 44.6311 13.956 44.3191 14.476C44.0151 14.996 43.5991 15.4 43.0711 15.688C42.5511 15.968 41.9671 16.108 41.3191 16.108ZM41.3191 14.644C41.6231 14.644 41.9071 14.572 42.1711 14.428C42.4431 14.276 42.6591 14.052 42.8191 13.756C42.9791 13.46 43.0591 13.1 43.0591 12.676C43.0591 12.044 42.8911 11.56 42.5551 11.224C42.2271 10.88 41.8231 10.708 41.3431 10.708C40.8631 10.708 40.4591 10.88 40.1311 11.224C39.8111 11.56 39.6511 12.044 39.6511 12.676C39.6511 13.308 39.8071 13.796 40.1191 14.14C40.4391 14.476 40.8391 14.644 41.3191 14.644ZM47.6994 7.12V16H46.0194V7.12H47.6994ZM48.9272 12.652C48.9272 11.98 49.0592 11.384 49.3232 10.864C49.5953 10.344 49.9593 9.944 50.4153 9.664C50.8793 9.384 51.3953 9.244 51.9633 9.244C52.4593 9.244 52.8913 9.344 53.2593 9.544C53.6353 9.744 53.9353 9.996 54.1593 10.3V9.352H55.8513V16H54.1593V15.028C53.9433 15.34 53.6433 15.6 53.2593 15.808C52.8833 16.008 52.4473 16.108 51.9513 16.108C51.3913 16.108 50.8793 15.964 50.4153 15.676C49.9593 15.388 49.5953 14.984 49.3232 14.464C49.0592 13.936 48.9272 13.332 48.9272 12.652ZM54.1593 12.676C54.1593 12.268 54.0793 11.92 53.9193 11.632C53.7593 11.336 53.5433 11.112 53.2713 10.96C52.9993 10.8 52.7073 10.72 52.3953 10.72C52.0833 10.72 51.7953 10.796 51.5312 10.948C51.2673 11.1 51.0513 11.324 50.8833 11.62C50.7233 11.908 50.6433 12.252 50.6433 12.652C50.6433 13.052 50.7233 13.404 50.8833 13.708C51.0513 14.004 51.2673 14.232 51.5312 14.392C51.8033 14.552 52.0913 14.632 52.3953 14.632C52.7073 14.632 52.9993 14.556 53.2713 14.404C53.5433 14.244 53.7593 14.02 53.9193 13.732C54.0793 13.436 54.1593 13.084 54.1593 12.676ZM59.1721 10.384C59.3881 10.032 59.6681 9.756 60.0121 9.556C60.3641 9.356 60.7641 9.256 61.2121 9.256V11.02H60.7681C60.2401 11.02 59.8401 11.144 59.5681 11.392C59.3041 11.64 59.1721 12.072 59.1721 12.688V16H57.4921V9.352H59.1721V10.384ZM71.5596 9.352L69.6156 16H67.8036L66.5916 11.356L65.3796 16H63.5556L61.5996 9.352H63.3036L64.4796 14.416L65.7516 9.352H67.5276L68.7756 14.404L69.9516 9.352H71.5596ZM73.3206 8.56C73.0246 8.56 72.7766 8.468 72.5766 8.284C72.3846 8.092 72.2886 7.856 72.2886 7.576C72.2886 7.296 72.3846 7.064 72.5766 6.88C72.7766 6.688 73.0246 6.592 73.3206 6.592C73.6166 6.592 73.8606 6.688 74.0526 6.88C74.2526 7.064 74.3526 7.296 74.3526 7.576C74.3526 7.856 74.2526 8.092 74.0526 8.284C73.8606 8.468 73.6166 8.56 73.3206 8.56ZM74.1486 9.352V16H72.4686V9.352H74.1486ZM79.7445 16L77.4885 13.168V16H75.8085V7.12H77.4885V12.172L79.7205 9.352H81.9045L78.9765 12.688L81.9285 16H79.7445ZM83.6683 8.56C83.3723 8.56 83.1243 8.468 82.9243 8.284C82.7323 8.092 82.6363 7.856 82.6363 7.576C82.6363 7.296 82.7323 7.064 82.9243 6.88C83.1243 6.688 83.3723 6.592 83.6683 6.592C83.9643 6.592 84.2083 6.688 84.4003 6.88C84.6003 7.064 84.7003 7.296 84.7003 7.576C84.7003 7.856 84.6003 8.092 84.4003 8.284C84.2083 8.468 83.9643 8.56 83.6683 8.56ZM84.4963 9.352V16H82.8163V9.352H84.4963Z" fill="white"/>
</svg>
